<svg xmlns="http://www.w3.org/2000/svg" viewBox="0 0 337.43 155.3"><defs><style>.cls-1{fill:#231f20;}</style></defs><title>Asset 1</title><g id="Layer_2" data-name="Layer 2"><g id="Layer_1-2" data-name="Layer 1"><rect y="57.35" width="145.32" height="9.28"/><rect x="192.11" y="57.35" width="145.32" height="9.28"/><polygon points="337.43 118.96 213.62 118.96 123.81 118.96 0 118.96 0 128.24 123.81 128.24 123.81 155.3 213.62 155.3 213.62 128.24 337.43 128.24 337.43 118.96"/><path class="cls-1" d="M25,101.52v8.25H1.4V76.16H11.72v25.36Z" transform="translate(0 -0.27)"/><path class="cls-1" d="M42.64,110.28a15.22,15.22,0,0,1-11.56-4.7Q26.61,100.89,26.61,93a18.3,18.3,0,0,1,4.28-12.45c2.84-3.27,6.8-4.91,11.85-4.91a15.14,15.14,0,0,1,11.44,4.63q4.41,4.64,4.42,12.36,0,8-4.46,12.83A14.92,14.92,0,0,1,42.64,110.28Zm0-7.63a3.91,3.91,0,0,0,3.76-2.28Q47.49,98.1,47.49,92q0-8.76-4.7-8.77-5.07,0-5.07,10Q37.72,102.65,42.59,102.65Z" transform="translate(0 -0.27)"/><path class="cls-1" d="M81.45,96.94l9.43.57q-.67,6.18-4.57,9.47a14.35,14.35,0,0,1-9.59,3.3,14.39,14.39,0,0,1-11.06-4.53q-4.2-4.53-4.21-12.5t4-12.76q4-4.84,11.13-4.85,6.68,0,10.26,3.7a15.29,15.29,0,0,1,4,9.79l-9.63.52q0-3.37-1.29-4.87a3.94,3.94,0,0,0-3-1.51q-4.86,0-4.87,9.8,0,5.49,1.27,7.46a4,4,0,0,0,3.56,2Q81,102.5,81.45,96.94Z" transform="translate(0 -0.27)"/><path class="cls-1" d="M112.61,109.77l-1.9-6.63h-9l-2,6.63H91.31l10.38-33.61h10.9l10.55,33.61Zm-9.15-14h5.44l-2.72-9.75Z" transform="translate(0 -0.27)"/><path class="cls-1" d="M149.79,101.52v8.25H126.23V76.16h10.32v25.36Z" transform="translate(0 -0.27)"/><path class="cls-1" d="M166,109.77V76.16h13q8.47,0,12.68,5a17.54,17.54,0,0,1,4.21,11.62q0,7.55-4.51,12.25a15.53,15.53,0,0,1-11.74,4.72ZM176.31,102H179a5.16,5.16,0,0,0,4.32-2.49,11.49,11.49,0,0,0,1.76-6.77,12.28,12.28,0,0,0-1.56-6.33A5,5,0,0,0,179,83.79h-2.68Z" transform="translate(0 -0.27)"/><path class="cls-1" d="M210.56,76.16v33.61H200.24V76.16Z" transform="translate(0 -0.27)"/><path class="cls-1" d="M213,100l9.57-1.72q1.22,4.07,6.21,4.06c2.59,0,3.89-.69,3.89-2.07a1.91,1.91,0,0,0-.9-1.68,9.46,9.46,0,0,0-3.21-1.07q-8.85-1.69-11.35-4.43a9.17,9.17,0,0,1-2.51-6.43,10.09,10.09,0,0,1,3.6-7.91q3.62-3.15,10.38-3.15,10.26,0,13.57,8.25l-8.55,2.59q-1.32-3.37-5.39-3.38c-2.25,0-3.37.7-3.37,2.09a1.66,1.66,0,0,0,.76,1.46,9.42,9.42,0,0,0,3,1,61.87,61.87,0,0,1,8.57,2.26,9.17,9.17,0,0,1,4.23,3.36,9.38,9.38,0,0,1,1.7,5.6,9.93,9.93,0,0,1-4.14,8.27q-4.14,3.16-10.86,3.16Q215.83,110.28,213,100Z" transform="translate(0 -0.27)"/><path class="cls-1" d="M261.25,84.21v25.56h-9.77V84.21h-7v-8h23.71v8Z" transform="translate(0 -0.27)"/><path class="cls-1" d="M301.06,109.77H289.63l-4.91-12.86h-3.25v12.86H271.15V76.16h17.56q5.81,0,9,2.72a9,9,0,0,1,3.21,7.18,10.76,10.76,0,0,1-1.18,5.13C299,92.68,297.38,94,295,95.12Zm-19.59-20h4.4a5.44,5.44,0,0,0,3.13-.82,2.71,2.71,0,0,0,1.18-2.39q0-3.22-4-3.22h-4.75Z" transform="translate(0 -0.27)"/><path class="cls-1" d="M320.07,110.28a15.21,15.21,0,0,1-11.56-4.7Q304,100.89,304,93a18.3,18.3,0,0,1,4.28-12.45c2.84-3.27,6.8-4.91,11.85-4.91a15.14,15.14,0,0,1,11.44,4.63Q336,84.91,336,92.63q0,8-4.46,12.83A14.92,14.92,0,0,1,320.07,110.28Zm-.05-7.63a3.91,3.91,0,0,0,3.76-2.28q1.14-2.27,1.14-8.33,0-8.76-4.7-8.77-5.07,0-5.07,10Q315.15,102.65,320,102.65Z" transform="translate(0 -0.27)"/><polygon class="cls-1" points="168.71 49.59 171.48 56.05 177.67 56.09 172.34 60.46 174.25 66.62 168.71 62.86 163.18 66.62 165.09 60.46 159.76 56.09 165.95 56.05 168.71 49.59"/><path class="cls-1" d="M49.57,36.1c-.08.13-.55.23-.6.25-.26.1-.75.26-1.46.5s-2.16.78-4.36,1.64l-2.73,1.09-1.07.49-1.12.52c-.55.22-.84.27-.9.13s0-.21.25-.31a2.51,2.51,0,0,0,1.27-1A2.06,2.06,0,0,0,39,38.11a26.63,26.63,0,0,0-1.35-3.77l-1.49-3.69A13.53,13.53,0,0,0,35,28.21a1.93,1.93,0,0,0-1.16-.8,2.64,2.64,0,0,0-1.39.08c-.25.07-.4.05-.45-.08s0-.23.24-.32l.3-.11c1.21-.42,2.61-.95,4.2-1.58l2-.81c.2-.07.33,0,.38.09s0,.23-.25.32a2.74,2.74,0,0,0-1.21.81,1.6,1.6,0,0,0-.44.94,4.28,4.28,0,0,0,.41,1.54c.74,2,1.11,3,1.86,4.93l1.1,2.71a7.61,7.61,0,0,0,.78,1.61A1.48,1.48,0,0,0,42,38a2.21,2.21,0,0,0,1.41-.2A18.62,18.62,0,0,0,45.35,37a4.72,4.72,0,0,0,2.13-2.41,7.82,7.82,0,0,0,.79-2.73c0-.21.07-.34.19-.38s.22,0,.28.18.22.93.45,2.21A20.07,20.07,0,0,1,49.57,36.1Z" transform="translate(0 -0.27)"/><path class="cls-1" d="M48.33,28.64a6.92,6.92,0,0,1-.21-3.43A7.91,7.91,0,0,1,53.45,19a7.24,7.24,0,0,1,5.89.37,7,7,0,0,1,3.56,4.14,7.67,7.67,0,0,1-.58,5.84,7.63,7.63,0,0,1-4.51,4,7.27,7.27,0,0,1-5.61-.26A7.4,7.4,0,0,1,48.33,28.64Zm2.35-1.23a12.65,12.65,0,0,0,1.8,3.31,5.05,5.05,0,0,0,2.63,2,4.62,4.62,0,0,0,2.78,0,4.19,4.19,0,0,0,2.77-3.18,8.91,8.91,0,0,0-.22-5.12A8.05,8.05,0,0,0,57.6,20.3a4.36,4.36,0,0,0-4.22-.75,4.09,4.09,0,0,0-2.41,2,6.41,6.41,0,0,0-.74,3A8.61,8.61,0,0,0,50.68,27.41Z" transform="translate(0 -0.27)"/><path class="cls-1" d="M74.83,13.65a3.62,3.62,0,0,0,.53-.9c0-.19.12-.31.27-.35s.27.07.35.32c.51,1.47.76,2.21,1.26,3.68a1.24,1.24,0,0,1,.07.4c0,.05,0,.09-.14.12s-.29-.09-.51-.36a7.4,7.4,0,0,0-2.87-2.23,4.74,4.74,0,0,0-3.26-.25,4.43,4.43,0,0,0-2.33,1.58,5.49,5.49,0,0,0-1.09,2.92,8.88,8.88,0,0,0,.36,3.52,7.31,7.31,0,0,0,3.21,4.4,5.44,5.44,0,0,0,4.41.78,4.69,4.69,0,0,0,2.42-1.63,6.53,6.53,0,0,0,1.29-2.56c0-.25.14-.39.26-.42a.23.23,0,0,1,.31.19,3.51,3.51,0,0,1-.48,1.59,6.39,6.39,0,0,1-1.75,2.31,7.08,7.08,0,0,1-2.74,1.48,7.71,7.71,0,0,1-3.76.11,7.23,7.23,0,0,1-5.52-5.15,7.74,7.74,0,0,1-.2-4.09,6.93,6.93,0,0,1,1.94-3.46,8.13,8.13,0,0,1,3.4-2,8,8,0,0,1,2.16-.29A10.52,10.52,0,0,1,74.83,13.65Z" transform="translate(0 -0.27)"/><path class="cls-1" d="M84.54,9.91l.53-.12a76.23,76.23,0,0,1,5.52,7.65,42.71,42.71,0,0,0,3,4.28,2.09,2.09,0,0,0,1.9.6c.25,0,.4,0,.43.16s0,.17-.16.19l-.16,0c-.7.09-1.57.25-2.63.49-1.62.36-2.66.66-3.1.79-.21.06-.36,0-.39-.12s.06-.17.22-.23A3.58,3.58,0,0,0,91,23a.81.81,0,0,0,.19-.8A10,10,0,0,0,89.93,20l-1.1-1.71c-.39.1-2.14.52-5.23,1.34a15.67,15.67,0,0,0-.22,4.06,1.11,1.11,0,0,0,.83.84,3,3,0,0,0,1.21.07c.28-.05.44,0,.47.14s0,.12-.09.19c-1.2.24-1.92.4-2.16.46-1.24.32-2.08.57-2.49.69-.23.07-.37,0-.41-.1s.06-.21.26-.3a2.58,2.58,0,0,0,1.51-2.18c.2-1.13.44-3.14.76-6A68,68,0,0,1,84.54,9.91Zm.11,2.47a47.17,47.17,0,0,0-1,6.57c.76-.23,1.32-.38,1.65-.47,1.28-.29,1.92-.43,3.2-.7-.46-.69-1.08-1.6-1.89-2.71C85.64,13.74,85,12.84,84.65,12.38Z" transform="translate(0 -0.27)"/><path class="cls-1" d="M109.53,20c-.1.11-.57.12-.63.13l-1.51.23c-.73.1-2.24.36-4.52.81l-2.84.56L98.9,22l-1.19.3c-.56.12-.86.11-.89,0s.07-.19.29-.25a2.47,2.47,0,0,0,1.42-.77A2.06,2.06,0,0,0,98.88,20,27.52,27.52,0,0,0,98.24,16c-.32-1.57-.48-2.35-.79-3.91a13,13,0,0,0-.73-2.61,1.88,1.88,0,0,0-1-1,2.63,2.63,0,0,0-1.36-.18c-.25,0-.4,0-.42-.16S94,8,94.25,7.9l.31-.05c1.24-.19,2.7-.45,4.35-.78l2-.43c.21,0,.33,0,.36.16s-.08.21-.3.26a2.86,2.86,0,0,0-1.33.57,1.71,1.71,0,0,0-.59.85,4.49,4.49,0,0,0,.13,1.59l.93,5.18.6,2.87a7.61,7.61,0,0,0,.46,1.72,1.47,1.47,0,0,0,.63.63,2.1,2.1,0,0,0,1.41.06,17.31,17.31,0,0,0,2-.44,4.68,4.68,0,0,0,2.5-2A7.84,7.84,0,0,0,109,15.57c0-.2.13-.32.25-.34s.21.06.24.23,0,1,0,2.26A19.37,19.37,0,0,1,109.53,20Z" transform="translate(0 -0.27)"/><path class="cls-1" d="M109.61,5l2.14-.3c1.31-.23,2-.34,3.28-.55.39-.06.6,0,.62.13s-.08.19-.29.25c-.85.24-1.35.61-1.49,1.13a22.85,22.85,0,0,0,.51,5.41c.18,1.14.41,2.41.69,3.82a18.39,18.39,0,0,0,.6,2.52,1.34,1.34,0,0,0,.53.62,2.53,2.53,0,0,0,1.23.19c.19,0,.3.05.31.17s0,.21-.23.24l-2.8.4-2.37.42c-.26,0-.4,0-.43-.15s.07-.25.28-.29c.69-.12,1.07-.42,1.12-.88a26.24,26.24,0,0,0-.5-4.23c-.37-2.29-.69-4.13-1-5.54a6.7,6.7,0,0,0-.79-2.53,1.67,1.67,0,0,0-1.29-.39c-.22,0-.35-.07-.37-.2S109.45,5,109.61,5Z" transform="translate(0 -0.27)"/><path class="cls-1" d="M131.85,16.72l-.47.08c-6.87.74-10.39,1.3-10.58,1.33a1.82,1.82,0,0,1-.51,0,.12.12,0,0,1-.1-.12,7.24,7.24,0,0,1,.42-1.08c.28-.63.84-1.79,1.72-3.48,1-1.86,1.45-2.78,2.44-4.63.76-1.4,1.29-2.34,1.58-2.83a16.65,16.65,0,0,0,1.51-2.89c-1.39.1-2.48.2-3.25.29A10,10,0,0,0,122,4a3.8,3.8,0,0,0-1.31.92,9.33,9.33,0,0,0-1.17,1.8c-.21.4-.36.61-.44.62s-.2,0-.22-.17.09-.6.28-1.68.32-1.71.37-1.86.11-.24.17-.25l1.77-.12c.63,0,1.91-.21,3.84-.44,2.68-.32,4.37-.54,5.09-.71l.17,0a.13.13,0,0,1,.16.13,73.67,73.67,0,0,1-3.62,6.63,76.71,76.71,0,0,0-4.28,8.43c1.09-.1,2-.2,2.79-.29a17.15,17.15,0,0,0,2.48-.45,6.14,6.14,0,0,0,1.58-.69,5.55,5.55,0,0,0,1-.77,10.69,10.69,0,0,0,1-1.37,3.44,3.44,0,0,1,.75-.94q.18,0,.21.24C132.34,14.49,132.18,15.23,131.85,16.72Z" transform="translate(0 -0.27)"/><path class="cls-1" d="M145.8,1.13a28.14,28.14,0,0,1,.88,3.44c0,.07-.07.1-.12.1a.24.24,0,0,1-.17-.08,9.15,9.15,0,0,0-1.67-1.78A5,5,0,0,0,143.16,2a8,8,0,0,0-2.59-.08,14.34,14.34,0,0,0-2.71.41.59.59,0,0,0-.06.41,2.52,2.52,0,0,1,0,.28c0,.6.07,2.2.29,4.81a4,4,0,0,0,.07.46l1.2-.06a4.17,4.17,0,0,0,2.09-.59,3.51,3.51,0,0,0,1-1.88c0-.16.11-.25.22-.25s.22.09.24.3l0,.45c0,.59,0,1.2,0,1.82.07,1,.18,1.93.25,2.72,0,.24,0,.38-.18.39s-.18-.07-.23-.25a2.91,2.91,0,0,0-1.16-1.81c-.54-.34-3.13-.64-3.42-.3a15.74,15.74,0,0,0,.19,2.61,14.85,14.85,0,0,0,.43,3,1.61,1.61,0,0,0,.9.93,4.76,4.76,0,0,0,2.22.2c2.94-.22,4.77-1.33,5.52-3.36q.14-.37.3-.39c.12,0,.19.07.2.24a1,1,0,0,1,0,.29c0,.14-.12.67-.24,1.6,0,.19-.14.78-.33,1.75-1.9.11-2.85.17-4.74.31q-1,.07-3,.15c-1.33.06-2.49.13-3.51.22a8.9,8.9,0,0,1-1.59.09.14.14,0,0,1-.08-.11c0-.15.1-.23.35-.26q1.26-.12,1.59-.81a7.6,7.6,0,0,0,.11-3.21c-.09-.91-.13-1.36-.22-2.27s-.09-1.27-.16-2.12Q136,7,135.8,5.22c-.16-1.18-.26-1.86-.32-2a1,1,0,0,0-.41-.46,3.71,3.71,0,0,0-1.38-.38c-.21,0-.32-.11-.33-.22s.12-.21.4-.24l2.41-.1c.86,0,3-.21,6.28-.45C144.63,1.19,145.75,1.13,145.8,1.13Z" transform="translate(0 -0.27)"/><path class="cls-1" d="M163.49,7.29c.43-.47,1.08-1.3,2-2.51s1.41-2,1.57-2.25a1.57,1.57,0,0,0,.24-.69.81.81,0,0,0-.49-.73,2.06,2.06,0,0,0-1-.27c-.27,0-.4-.06-.4-.2s.22-.21.67-.21c1.79,0,2.68,0,4.46,0,.41,0,.61.08.61.24s-.09.19-.27.19a3,3,0,0,0-1.34.29,5.42,5.42,0,0,0-1.57,1.34l-2,2.62a17.29,17.29,0,0,0-1.7,2.41A12,12,0,0,0,164,10.3a13,13,0,0,0,.3,3.53c.17.37.73.59,1.66.66.24,0,.36.1.36.22s-.13.23-.39.23l-3.06,0c-.74,0-1.34,0-1.81.08l-.72.06c-.29,0-.44-.07-.44-.21s.1-.19.31-.2a1.53,1.53,0,0,0,1.45-.83,5.2,5.2,0,0,0,.33-2.24,13.49,13.49,0,0,0-.25-2.62,12,12,0,0,0-1-1.8c-.66-1-1.46-2.16-2.42-3.4a11.23,11.23,0,0,0-2.07-2.25,2.45,2.45,0,0,0-1.18-.42c-.28,0-.43-.08-.43-.2a.16.16,0,0,1,.1-.17,3,3,0,0,1,.67-.06c2.07-.07,3.1-.1,5.17-.14a3.16,3.16,0,0,1,.64,0,.16.16,0,0,1,.11.17q0,.18-.3.21c-1,.09-1.47.39-1.46.88A2.53,2.53,0,0,0,160.14,3C160.52,3.49,161.65,4.92,163.49,7.29Z" transform="translate(0 -0.27)"/><path class="cls-1" d="M171.86,7.52a7,7,0,0,1,1-3.29,7.77,7.77,0,0,1,2.87-2.91,7.62,7.62,0,0,1,4.23-1,7.07,7.07,0,0,1,5.31,2.43,7,7,0,0,1,1.84,5.13,7.69,7.69,0,0,1-2.58,5.26A7.44,7.44,0,0,1,179,15.25,7.11,7.11,0,0,1,173.88,13,7.53,7.53,0,0,1,171.86,7.52Zm2.6-.32a12.62,12.62,0,0,0,.5,3.73,5,5,0,0,0,1.73,2.81,4.41,4.41,0,0,0,2.57.94,4.13,4.13,0,0,0,3.67-2,9,9,0,0,0,1.59-4.87A8.07,8.07,0,0,0,183.33,3,4.28,4.28,0,0,0,179.69.8a4,4,0,0,0-2.92,1A6.35,6.35,0,0,0,175,4.39,8.47,8.47,0,0,0,174.46,7.2Z" transform="translate(0 -0.27)"/><path class="cls-1" d="M189.8,1c2.37.14,3.56.23,5.92.41.34,0,.5.11.49.24s-.14.2-.39.21a2.12,2.12,0,0,0-1.27.33,2.33,2.33,0,0,0-.7,1.21,22.76,22.76,0,0,0-.49,3.83,39.24,39.24,0,0,0-.15,4.92,3.25,3.25,0,0,0,1.16,2.27,5.16,5.16,0,0,0,2.95,1.05,5.35,5.35,0,0,0,3.11-.46A3.52,3.52,0,0,0,202,12.93a40.57,40.57,0,0,0,1-6.31,6.52,6.52,0,0,0-.22-3.35,1.88,1.88,0,0,0-1.56-.94c-.29,0-.43-.12-.42-.27s.22-.2.6-.17c1.89.18,2.83.28,4.72.48.21,0,.31.11.29.26s-.1.15-.28.16a2.21,2.21,0,0,0-1.37.39A2.47,2.47,0,0,0,204,4.6a28,28,0,0,0-.46,3.14,41.2,41.2,0,0,1-.65,4.39,5.78,5.78,0,0,1-1.13,2.62A4.64,4.64,0,0,1,199.67,16a8.73,8.73,0,0,1-3.29.26,8.4,8.4,0,0,1-3.31-.88,3.6,3.6,0,0,1-1.77-1.77,7.11,7.11,0,0,1-.3-3.07c.1-1.23.15-1.84.26-3.07a18.89,18.89,0,0,0,0-5,1.57,1.57,0,0,0-1.54-1c-.26,0-.39-.08-.39-.2S189.47,1,189.8,1Z" transform="translate(0 -0.27)"/><path class="cls-1" d="M215.73,10.71a6,6,0,0,1,2,1.7,5,5,0,0,1,.59,2.37A5.51,5.51,0,0,0,219,17.6a2.62,2.62,0,0,0,1.65,1c.2.05.29.14.27.26s-.15.18-.38.14a21.42,21.42,0,0,1-3.79-.78c-.43-.2-.66-1-.68-2.39a16.86,16.86,0,0,0-.23-3,2.77,2.77,0,0,0-.89-1.56,4.17,4.17,0,0,0-2.25-.8,8.45,8.45,0,0,0-1.37-.05c-.1.45-.18.93-.24,1.43-.24,1.89-.37,3.11-.38,3.67a1.9,1.9,0,0,0,.32,1.28,2.1,2.1,0,0,0,1.29.57c.27,0,.4.13.38.25s-.19.19-.52.15c-2.23-.29-3.35-.43-5.59-.69-.32,0-.48-.12-.46-.27s.15-.18.41-.15a2.07,2.07,0,0,0,1.22-.11,1.76,1.76,0,0,0,.62-.73,6.6,6.6,0,0,0,.42-1.91l.25-2.26c.17-1.37.25-2.05.42-3.43a32.19,32.19,0,0,0,.3-3.49,2,2,0,0,0-.31-1.19,3.08,3.08,0,0,0-1.41-.63c-.17,0-.24-.11-.23-.21s.18-.16.51-.12c2.8.26,4.2.4,7,.72a6.73,6.73,0,0,1,4,1.62,3.15,3.15,0,0,1,.91,2.72,3.1,3.1,0,0,1-.78,1.65,3.25,3.25,0,0,1-1.38,1A14.27,14.27,0,0,1,215.73,10.71Zm-4.33-.86a18.41,18.41,0,0,0,3.36.14,3.64,3.64,0,0,0,2-.85,3,3,0,0,0,1.07-1.93,3.1,3.1,0,0,0-.56-2.29,3.73,3.73,0,0,0-2.69-1.31,6.54,6.54,0,0,0-2.37,0c-.59.54-.6,3.62-.75,4.82A14.16,14.16,0,0,0,211.4,9.85Z" transform="translate(0 -0.27)"/><path class="cls-1" d="M238.35,8.17a1.5,1.5,0,0,0,.54-.52c.1-.16.21-.23.32-.21a.29.29,0,0,1,.19.15c0,.28,0,.82-.09,1.63l-.15,2.1c0,.13-.12.18-.29.15s-.16-.11-.2-.27a5.91,5.91,0,0,0-1.33-2.74A4.21,4.21,0,0,0,234.88,7a2.73,2.73,0,0,0-2.28.4,2.55,2.55,0,0,0-1,1.56,2,2,0,0,0,.47,1.81A11.72,11.72,0,0,0,235,12.69a13.85,13.85,0,0,1,2.44,1.54,4.31,4.31,0,0,1,1.18,1.68,3.33,3.33,0,0,1,.2,2,4.23,4.23,0,0,1-2.12,2.78,5.25,5.25,0,0,1-3.86.64,7.67,7.67,0,0,1-3.64-1.89,1.47,1.47,0,0,0-.63.63c-.1.22-.22.32-.35.3s-.18-.19-.18-.5.15-1.74.43-4.3a.24.24,0,0,1,.26-.09c.12,0,.2.12.24.29.65,3,2,4.73,4,5.14a3.34,3.34,0,0,0,2.59-.43,3,3,0,0,0,1.29-1.89,2.58,2.58,0,0,0-.17-1.57,3.44,3.44,0,0,0-1-1.35,14.55,14.55,0,0,0-2.29-1.41,10.7,10.7,0,0,1-2.72-1.81,3.92,3.92,0,0,1-.91-1.56,3.31,3.31,0,0,1-.11-1.51,3.29,3.29,0,0,1,1.87-2.33,5.29,5.29,0,0,1,3.65-.48,6.43,6.43,0,0,1,1.58.54A10.08,10.08,0,0,1,238.35,8.17Z" transform="translate(0 -0.27)"/><path class="cls-1" d="M248.82,10.28c-.6-.17-1-.29-1.27-.34a5.47,5.47,0,0,0-3.84.16A3.83,3.83,0,0,0,242,11.56a.3.3,0,0,1-.37.21.34.34,0,0,1-.19-.15,27.24,27.24,0,0,1,1.2-3.4l.71.14c.61.13,1.41.34,2.41.63s2.75.71,5,1.25,3.81.91,4.51,1,1.52.29,2.62.58a14.13,14.13,0,0,1-.24,1.66c-.13.65-.19,1.11-.22,1.38a.63.63,0,0,1,0,.19c-.05.17-.15.24-.31.2a.37.37,0,0,1-.22-.16,5.56,5.56,0,0,1-.28-.72,5.26,5.26,0,0,0-.9-1.64,3.56,3.56,0,0,0-1.29-.94,26.4,26.4,0,0,0-3.19-1c-.35,1.07-.7,2.3-1,3.69a57.22,57.22,0,0,0-1.67,8.26c0,.88.63,1.47,1.88,1.78.31.08.44.18.41.3s-.2.18-.49.11c-2.72-.68-4.09-1-6.83-1.63-.18,0-.25-.13-.22-.27s.22-.17.57-.09a2.07,2.07,0,0,0,1.53-.15,2,2,0,0,0,.93-1.16c.19-.53.59-2.11,1.2-4.73Q248.3,13.6,248.82,10.28Z" transform="translate(0 -0.27)"/><path class="cls-1" d="M265.69,21.27c.55-.32,1.43-.93,2.63-1.82s1.94-1.45,2.18-1.69a1.61,1.61,0,0,0,.44-.59.82.82,0,0,0-.27-.84,2.07,2.07,0,0,0-.88-.55c-.26-.08-.37-.18-.33-.31s.27-.14.71,0c1.72.52,2.59.79,4.31,1.33.39.12.57.26.52.41s-.14.15-.32.1a2.94,2.94,0,0,0-1.38-.12,5.26,5.26,0,0,0-1.91.82c-1.09.75-1.64,1.13-2.73,1.9a18.28,18.28,0,0,0-2.35,1.8,11.39,11.39,0,0,0-1,2.61,12.91,12.91,0,0,0-.75,3.46c.06.41.53.78,1.41,1.13.23.09.32.2.29.32s-.2.17-.45.1l-2.94-.94c-.72-.21-1.31-.37-1.77-.46l-.72-.16q-.42-.12-.36-.33c0-.12.15-.15.36-.1a1.55,1.55,0,0,0,1.64-.36,5.21,5.21,0,0,0,1-2,13.27,13.27,0,0,0,.53-2.58,10.76,10.76,0,0,0-.47-2c-.33-1.18-.78-2.5-1.34-4a11.17,11.17,0,0,0-1.33-2.76,2.38,2.38,0,0,0-1-.74q-.4-.15-.36-.33a.14.14,0,0,1,.15-.12,2.51,2.51,0,0,1,.66.13c2,.54,3,.82,5,1.39a3.26,3.26,0,0,1,.61.21c.07,0,.08.11.06.2s-.15.15-.34.11c-1-.2-1.55-.07-1.68.4a2.63,2.63,0,0,0,.2,1.3C263.94,16.76,264.61,18.46,265.69,21.27Z" transform="translate(0 -0.27)"/><path class="cls-1" d="M283.76,35.23c-.15.05-.56-.18-.61-.2-.27-.1-.75-.28-1.44-.56s-2.15-.8-4.37-1.55L274.56,32l-1.13-.31c-.65-.18-1.05-.28-1.19-.33-.55-.18-.8-.33-.76-.48s.17-.13.39-.07a2.56,2.56,0,0,0,1.62,0,2.08,2.08,0,0,0,.92-.9,28.19,28.19,0,0,0,1.4-3.75l1.25-3.78a13.29,13.29,0,0,0,.66-2.63,1.84,1.84,0,0,0-.36-1.35,2.54,2.54,0,0,0-1.1-.84c-.24-.1-.34-.22-.29-.35s.17-.16.39-.09l.29.11c1.19.46,2.59.95,4.2,1.49l2,.65c.21.07.28.17.24.31s-.18.16-.4.08a2.87,2.87,0,0,0-1.44-.16,1.57,1.57,0,0,0-.94.44,4.35,4.35,0,0,0-.68,1.44c-.7,2-1.06,3-1.76,5-.36,1.12-.54,1.68-.91,2.79a8.35,8.35,0,0,0-.44,1.73,1.56,1.56,0,0,0,.24.86,2.13,2.13,0,0,0,1.2.75,17.42,17.42,0,0,0,2,.61,4.73,4.73,0,0,0,3.18-.46,7.92,7.92,0,0,0,2.36-1.58c.15-.16.28-.21.4-.17s.15.15.09.32-.43.85-1.07,2S283.83,35.2,283.76,35.23Z" transform="translate(0 -0.27)"/><path class="cls-1" d="M302.44,26.91a29,29,0,0,1-.7,3.49.15.15,0,0,1-.15,0,.28.28,0,0,1-.13-.15,9.07,9.07,0,0,0-.75-2.34,4.8,4.8,0,0,0-1.07-1.41,8.8,8.8,0,0,0-2.34-1.23,15.34,15.34,0,0,0-2.66-.82.59.59,0,0,0-.24.35l-.12.25q-.43.78-1.83,4.46a3.92,3.92,0,0,0-.14.44l1.13.47a4.2,4.2,0,0,0,2.16.39,3.42,3.42,0,0,0,1.75-1.24c.11-.13.22-.17.31-.13s.17.18.09.38l-.21.39a16.78,16.78,0,0,0-.76,1.66c-.37.94-.68,1.81-.95,2.55-.09.24-.21.33-.34.28s-.14-.15-.11-.33a2.87,2.87,0,0,0-.27-2.14c-.35-.55-2.58-2-3-1.78a14.4,14.4,0,0,0-1,2.44,14.75,14.75,0,0,0-.9,2.84,1.59,1.59,0,0,0,.42,1.24,4.88,4.88,0,0,0,1.94,1.16c2.79,1.1,5,.91,6.53-.59q.28-.27.45-.21c.11,0,.14.15.08.3a1.18,1.18,0,0,1-.17.24c-.1.11-.4.56-.91,1.33-.11.17-.47.65-1.07,1.44-1.79-.74-2.69-1.11-4.49-1.82-.64-.25-1.58-.65-2.81-1.19s-2.34-1-3.3-1.34a11,11,0,0,1-1.5-.62.15.15,0,0,1,0-.14c.05-.14.19-.16.43-.08a1.85,1.85,0,0,0,1.81,0,7.7,7.7,0,0,0,1.5-2.85c.31-.85.47-1.28.79-2.13l.78-2q.23-.6.78-2.31a17.49,17.49,0,0,0,.59-2,1,1,0,0,0-.17-.6,3.81,3.81,0,0,0-1.09-.95q-.27-.18-.21-.33c.05-.13.2-.14.47,0l2.25,1c.8.34,2.78,1.1,5.94,2.36C301.34,26.44,302.39,26.88,302.44,26.91Z" transform="translate(0 -0.27)"/></g></g></svg>